<?xml version="1.0" encoding="UTF-8"?>
<svg version="1.1" xmlns="http://www.w3.org/2000/svg" width="866" height="288">
<path d="M0 0 C2.19937657 -0.00959065 4.39777155 -0.04054112 6.59692383 -0.07226562 C16.9572061 -0.15171632 26.62061599 0.16601314 34.46606445 7.71679688 C38.45935034 12.27054393 38.73254295 18.38831364 38.80200195 24.24023438 C38.24417119 29.21422535 37.35944004 33.52109455 33.80200195 37.24023438 C34.40012695 37.94148438 34.99825195 38.64273438 35.61450195 39.36523438 C40.81979065 46.20647094 41.76158745 51.76017653 40.80200195 60.24023438 C39.19078579 66.68509902 35.43062513 69.70278967 29.9230957 73.11132812 C25.32410958 75.55903897 21.04896898 75.36913948 15.9777832 75.33789062 C15.11638229 75.33647568 14.25498138 75.33506073 13.36747742 75.33360291 C10.61645026 75.32800578 7.86550451 75.31545383 5.11450195 75.30273438 C3.24926875 75.297719 1.38403428 75.29315616 -0.48120117 75.2890625 C-5.05349816 75.27803729 -9.6257343 75.26077464 -14.19799805 75.24023438 C-14.22112269 65.60910726 -14.23891375 55.97798963 -14.24981022 46.34684086 C-14.25503878 41.87517889 -14.26213594 37.40353584 -14.2734375 32.93188477 C-14.28426734 28.62011465 -14.29027508 24.30836279 -14.29287529 19.99658012 C-14.29472937 18.3478714 -14.29834965 16.69916372 -14.3037281 15.05046272 C-14.31093983 12.74919566 -14.31198894 10.44800498 -14.31152344 8.14672852 C-14.31374405 6.83434708 -14.31596466 5.52196564 -14.31825256 4.16981506 C-14.04421224 -2.50621885 -5.2460501 0.0138251 0 0 Z M4.80200195 15.24023438 C4.77515516 17.88613451 4.75523839 20.53176533 4.73950195 23.17773438 C4.73112305 23.93248047 4.72274414 24.68722656 4.71411133 25.46484375 C4.70547754 27.39017751 4.74975863 29.31559018 4.80200195 31.24023438 C6.01058747 32.66413397 6.01058747 32.66413397 9.55200195 32.55273438 C12.605451 32.4868326 13.95458054 32.1671238 16.80200195 30.80273438 C19.34975936 27.5384202 19.47854759 25.42866607 19.2043457 21.36914062 C18.88272851 19.08216796 18.88272851 19.08216796 17.42700195 16.67773438 C13.35910311 14.45007549 9.34031843 14.92844164 4.80200195 15.24023438 Z M5.80200195 44.24023438 C3.98084193 46.0613944 4.66965115 48.54695202 4.6652832 50.96679688 C4.66915039 51.71703125 4.67301758 52.46726562 4.67700195 53.24023438 C4.67313477 53.99046875 4.66926758 54.74070312 4.6652832 55.51367188 C4.32524654 59.17629554 4.32524654 59.17629554 5.80200195 62.24023438 C11.09175589 62.20105101 16.85117733 62.06361304 20.80200195 58.24023438 C22.1386034 54.88430575 22.1386034 54.88430575 21.80200195 51.24023438 C18.55329654 46.67174239 15.20544846 45.32092368 9.80200195 44.24023438 C8.48200195 44.24023438 7.16200195 44.24023438 5.80200195 44.24023438 Z " fill="#FC8304" transform="translate(203.197998046875,94.759765625)"/>
<path d="M0 0 C3.08006577 1.54003289 5.08587302 2.73684211 7.65234375 4.87109375 C8.33997803 5.44005371 9.0276123 6.00901367 9.73608398 6.59521484 C10.46255127 7.20316895 11.18901855 7.81112305 11.9375 8.4375 C12.69168213 9.06350098 13.44586426 9.68950195 14.22290039 10.33447266 C19.34781119 14.59592677 24.43730472 18.89866927 29.51489258 23.21630859 C37.99684327 30.44855557 37.99684327 30.44855557 47 37 C47 24.79 47 12.58 47 0 C52.94 0 58.88 0 65 0 C65 24.75 65 49.5 65 75 C62.17645192 73.58822596 59.79886738 72.28638569 57.25 70.5 C56.63640625 70.0771875 56.0228125 69.654375 55.390625 69.21875 C54.93171875 68.8165625 54.4728125 68.414375 54 68 C54 67.34 54 66.68 54 66 C52.35 65.34 50.7 64.68 49 64 C49 63.34 49 62.68 49 62 C47.35 61.34 45.7 60.68 44 60 C44 59.34 44 58.68 44 58 C43.12492798 57.59467041 43.12492798 57.59467041 42.23217773 57.18115234 C40.00189392 56.00100216 38.22972655 54.70339119 36.28515625 53.1015625 C35.59873047 52.53953125 34.91230469 51.9775 34.20507812 51.3984375 C33.49802734 50.81320313 32.79097656 50.22796875 32.0625 49.625 C30.65764456 48.47124155 29.25269873 47.31759316 27.84765625 46.1640625 C27.22898682 45.65311035 26.61031738 45.1421582 25.97290039 44.61572266 C23.66401124 42.7248393 21.33039421 40.86431537 19 39 C18.67 50.88 18.34 62.76 18 75 C12.06 75 6.12 75 0 75 C0 50.25 0 25.5 0 0 Z " fill="#464646" transform="translate(395,95)"/>
<path d="M0 0 C38.94636015 0 38.94636015 0 53 14 C59.27345934 21.75927865 61.64229886 31.90460483 60.75 41.76171875 C59.03709179 52.72739008 55.08434935 60.35264251 47 68 C33 75 33 75 0 75 C0 50.25 0 25.5 0 0 Z M18 16 C18 30.52 18 45.04 18 60 C30.91041719 57.9791848 30.91041719 57.9791848 39.4375 50.1875 C42.47916876 44.18351036 41.78077058 36.4975992 41 30 C39.797638 26.81511745 38.31833943 24.47507224 36 22 C35.55011719 21.4740625 35.10023438 20.948125 34.63671875 20.40625 C32.57096897 18.63138146 30.73561 18.06235606 28.125 17.3125 C27.28195312 17.06113281 26.43890625 16.80976562 25.5703125 16.55078125 C22.62327507 15.82539243 22.62327507 15.82539243 18 16 Z " fill="#464646" transform="translate(472,95)"/>
<path d="M0 0 C1.58206057 0.00667536 3.16410534 0.0186375 4.74609375 0.03515625 C5.55240234 0.03966797 6.35871094 0.04417969 7.18945312 0.04882812 C9.18753131 0.06065107 11.18557158 0.07858711 13.18359375 0.09765625 C13.58707031 1.11214844 13.99054687 2.12664062 14.40625 3.171875 C17.85618365 11.82707482 21.3312191 20.47157866 24.84375 29.1015625 C25.32978447 30.29666695 25.32978447 30.29666695 25.82563782 31.51591492 C27.79816068 36.36634037 27.79816068 36.36634037 29.775177 41.2149353 C33.15061125 49.48200517 36.48376574 57.76136321 39.64453125 66.11328125 C39.90231354 66.78929382 40.16009583 67.4653064 40.4256897 68.1618042 C42.18359375 72.85700902 42.18359375 72.85700902 42.18359375 75.09765625 C35.91359375 75.09765625 29.64359375 75.09765625 23.18359375 75.09765625 C18.18359375 63.34765625 18.18359375 63.34765625 18.18359375 61.09765625 C8.94359375 61.09765625 -0.29640625 61.09765625 -9.81640625 61.09765625 C-10.80640625 64.39765625 -11.79640625 67.69765625 -12.81640625 71.09765625 C-13.47640625 72.41765625 -14.13640625 73.73765625 -14.81640625 75.09765625 C-21.08640625 75.09765625 -27.35640625 75.09765625 -33.81640625 75.09765625 C-32.08570892 69.90556427 -30.39837839 64.86314669 -28.3984375 59.796875 C-27.95274414 58.66483643 -27.50705078 57.53279785 -27.04785156 56.36645508 C-26.57959961 55.18462646 -26.11134766 54.00279785 -25.62890625 52.78515625 C-25.1362513 51.53740954 -24.64373999 50.28960612 -24.15136719 49.04174805 C-22.71019882 45.39220057 -21.26385603 41.74471732 -19.81640625 38.09765625 C-19.42694824 37.11571289 -19.03749023 36.13376953 -18.63623047 35.12207031 C-15.09374635 26.20061645 -11.50951047 17.29612578 -7.87890625 8.41015625 C-7.43659668 7.32118042 -7.43659668 7.32118042 -6.98535156 6.21020508 C-4.48133677 0.11467085 -4.48133677 0.11467085 0 0 Z M3.18359375 27.09765625 C2.36872204 29.34682244 1.55662457 31.59692603 0.74609375 33.84765625 C0.51599609 34.481875 0.28589844 35.11609375 0.04882812 35.76953125 C-1.06533602 38.8698141 -2.0160149 41.89609087 -2.81640625 45.09765625 C2.13359375 45.09765625 7.08359375 45.09765625 12.18359375 45.09765625 C11.20575836 42.47215329 10.22638745 39.8472412 9.24609375 37.22265625 C8.96830078 36.47628906 8.69050781 35.72992188 8.40429688 34.9609375 C6.93260181 30.9704111 6.93260181 30.9704111 5.18359375 27.09765625 C4.52359375 27.09765625 3.86359375 27.09765625 3.18359375 27.09765625 Z " fill="#464646" transform="translate(575.81640625,94.90234375)"/>
<path d="M0 0 C6.6 0 13.2 0 20 0 C24.97810676 10.42291103 28.94202078 21.19422939 33 32 C33.97445086 34.58518438 34.95432771 37.16810409 35.9375 39.75 C36.31777344 40.75546875 36.69804687 41.7609375 37.08984375 42.796875 C37.80907141 44.93691991 37.80907141 44.93691991 39 46 C39.3403125 45.08863281 39.680625 44.17726562 40.03125 43.23828125 C41.68183914 38.82338966 43.34017148 34.41142502 45 30 C45.33161133 29.11763672 45.66322266 28.23527344 46.00488281 27.32617188 C47.04193989 24.57047914 48.08302156 21.81633522 49.125 19.0625 C49.44919922 18.19987549 49.77339844 17.33725098 50.10742188 16.44848633 C50.42517578 15.6108374 50.74292969 14.77318848 51.0703125 13.91015625 C51.34633301 13.17933838 51.62235352 12.44852051 51.90673828 11.69555664 C53.5048826 7.75515659 55.2730365 3.88566788 57 0 C63.6 0 70.2 0 77 0 C74.81887467 7.88279189 71.91070328 15.20490962 68.625 22.6875 C67.55473814 25.1518116 66.4855994 27.61658143 65.41796875 30.08203125 C65.00367363 31.03674316 65.00367363 31.03674316 64.58100891 32.01074219 C62.49387249 36.82977872 60.44992154 41.66591254 58.42578125 46.51171875 C58.1329425 47.21272202 57.84010376 47.91372528 57.53839111 48.63597107 C56.38954271 51.38869467 55.2420135 54.14195662 54.09771729 56.89657593 C53.30513402 58.8041627 52.51011283 60.71071923 51.71484375 62.6171875 C51.26230225 63.70628418 50.80976074 64.79538086 50.34350586 65.91748047 C49.00267091 68.99387191 47.5008013 71.9983974 46 75 C41.05 75 36.1 75 31 75 C29.26932019 71.08399595 27.54042425 67.1672198 25.8125 63.25 C25.32974609 62.15816406 24.84699219 61.06632812 24.34960938 59.94140625 C19.83291044 49.69547174 15.4868985 39.40133923 11.5 28.9375 C9.24697106 23.07090257 6.88722917 17.3099615 4.140625 11.65234375 C2.51215847 7.86560137 1.30350762 3.91052286 0 0 Z " fill="#464646" transform="translate(253,95)"/>
<path d="M0 0 C14.52 0 29.04 0 44 0 C44 5.28 44 10.56 44 16 C35.42 16 26.84 16 18 16 C18 20.62 18 25.24 18 30 C26.25 30 34.5 30 43 30 C43 35.28 43 40.56 43 46 C34.75 46 26.5 46 18 46 C18 50.62 18 55.24 18 60 C26.58 60 35.16 60 44 60 C44 64.95 44 69.9 44 75 C29.48 75 14.96 75 0 75 C0 50.25 0 25.5 0 0 Z " fill="#464646" transform="translate(339,95)"/>
<path d="M0 0 C-2.31 4.62 -4.62 9.24 -7 14 C-12 12 -12 12 -14 10.89453125 C-16.44348182 9.80164583 -18.33024741 9.69970923 -21 9.6875 C-21.845625 9.67074219 -22.69125 9.65398437 -23.5625 9.63671875 C-26.45330535 10.06755993 -27.82826275 11.09470274 -30 13 C-30.0870052 15.38489822 -30.0870052 15.38489822 -29 18 C-26.47877313 19.55775803 -24.18773249 20.7548977 -21.5 21.9375 C-20.03322583 22.62873094 -18.56836331 23.32403333 -17.10546875 24.0234375 C-16.39696777 24.35956055 -15.6884668 24.69568359 -14.95849609 25.04199219 C-8.41266319 28.24391793 -2.04641399 32.11836841 1 39 C2.80434984 45.78886626 2.09952709 51.72858331 -1 58 C-5.15139042 64.16778005 -10.46446757 67.57218883 -17.25 70.3125 C-31.49237621 72.9236023 -42.81642759 69.28186436 -55 62 C-54.43555175 57.65136348 -52.84572036 54.82172345 -50.4375 51.1875 C-49.79683594 50.21167969 -49.15617188 49.23585937 -48.49609375 48.23046875 C-47.75552734 47.12638672 -47.75552734 47.12638672 -47 46 C-44.52090125 46.98195208 -42.05316426 47.97701708 -39.60546875 49.03515625 C-32.75232868 51.94691043 -26.45665532 54.09718431 -19 52 C-18.47470081 46.8660045 -18.47470081 46.8660045 -20.99609375 42.5625 C-24.55842644 39.52363102 -28.27971654 37.41914435 -32.375 35.1875 C-39.50429291 31.15872264 -46.28327582 27.15017254 -49 19 C-49.74551445 11.54485551 -47.11564526 5.43170107 -42.5625 -0.375 C-31.12782376 -12.08857078 -12.51989761 -7.89297893 0 0 Z " fill="#454545" transform="translate(682,101)"/>
<path d="M0 0 C2.19937657 -0.00959065 4.39777155 -0.04054112 6.59692383 -0.07226562 C17.35073521 -0.15511789 26.49128508 0.33308084 34.62231445 8.03320312 C35.01161133 8.43152344 35.4009082 8.82984375 35.80200195 9.24023438 C35.47200195 9.90023437 35.14200195 10.56023437 34.80200195 11.24023438 C33.81200195 10.58023438 32.82200195 9.92023438 31.80200195 9.24023438 C31.14200195 9.57023437 30.48200195 9.90023437 29.80200195 10.24023438 C29.80200195 8.59023437 29.80200195 6.94023438 29.80200195 5.24023438 C15.86282502 1.75544014 1.16431569 2.6505862 -13.19799805 2.24023438 C-12.86799805 26.33023438 -12.53799805 50.42023438 -12.19799805 75.24023438 C-12.85799805 75.24023438 -13.51799805 75.24023438 -14.19799805 75.24023438 C-14.22112269 65.60910726 -14.23891375 55.97798963 -14.24981022 46.34684086 C-14.25503878 41.87517889 -14.26213594 37.40353584 -14.2734375 32.93188477 C-14.28426734 28.62011465 -14.29027508 24.30836279 -14.29287529 19.99658012 C-14.29472937 18.3478714 -14.29834965 16.69916372 -14.3037281 15.05046272 C-14.31093983 12.74919566 -14.31198894 10.44800498 -14.31152344 8.14672852 C-14.31374405 6.83434708 -14.31596466 5.52196564 -14.31825256 4.16981506 C-14.04421224 -2.50621885 -5.2460501 0.0138251 0 0 Z " fill="#DC8B37" transform="translate(203.197998046875,94.759765625)"/>
<path d="M0 0 C4 2 4 2 5 4 C4.51202438 4.3592305 4.02404877 4.718461 3.52128601 5.08857727 C1.2920136 7.88955087 1.63975204 10.0352847 1.65942383 13.58276367 C1.65898575 14.24644455 1.65854767 14.91012543 1.65809631 15.59391785 C1.66018481 17.78556839 1.68351732 19.97645201 1.70703125 22.16796875 C1.71262702 23.6882536 1.71689721 25.20854386 1.71989441 26.72883606 C1.73134476 30.72877965 1.76081328 34.72839606 1.79400635 38.72821045 C1.82470331 42.8102984 1.83839893 46.89243925 1.85351562 50.97460938 C1.88568305 58.98322301 1.9368814 66.99157079 2 75 C1.34 75 0.68 75 0 75 C0 50.25 0 25.5 0 0 Z " fill="#3F3F3F" transform="translate(395,95)"/>
<path d="M0 0 C0.33 0 0.66 0 1 0 C1.33 5.28 1.66 10.56 2 16 C9.51998662 16.30678145 9.51998662 16.30678145 15 13 C14.34 14.98 13.68 16.96 13 19 C11.02090602 19.02686553 9.04171029 19.04633375 7.0625 19.0625 C5.96035156 19.07410156 4.85820312 19.08570313 3.72265625 19.09765625 C1 19 1 19 0 18 C-0.08631874 16.65732587 -0.10706473 15.31025678 -0.09765625 13.96484375 C-0.09443359 13.15595703 -0.09121094 12.34707031 -0.08789062 11.51367188 C-0.07951172 10.66353516 -0.07113281 9.81339844 -0.0625 8.9375 C-0.05798828 8.08349609 -0.05347656 7.22949219 -0.04882812 6.34960938 C-0.03700373 4.23304337 -0.01906769 2.11651315 0 0 Z " fill="#FA9423" transform="translate(207,110)"/>
<path d="M0 0 C2.475 0.495 2.475 0.495 5 1 C4.01 1.66 3.02 2.32 2 3 C1.61605333 5.77262255 1.39657752 8.34323528 1.3125 11.125 C1.27833984 11.87910156 1.24417969 12.63320312 1.20898438 13.41015625 C1.12645722 15.27291201 1.06155289 17.13643326 1 19 C0.67 19 0.34 19 0 19 C0 12.73 0 6.46 0 0 Z " fill="#FA911E" transform="translate(207,137)"/>
<path d="M0 0 C4 2 4 2 5 4 C4.2884375 4.556875 4.2884375 4.556875 3.5625 5.125 C1.47794198 7.62646962 1.35378509 9.81593418 1 13 C0.67 13 0.34 13 0 13 C0 8.71 0 4.42 0 0 Z " fill="#383838" transform="translate(395,95)"/>
<path d="M0 0 C2.57966596 2.57966596 3.33609844 5.09307892 4.625 8.5 C5.29402344 10.24796875 5.29402344 10.24796875 5.9765625 12.03125 C7 15 7 15 7 17 C6.01 16.67 5.02 16.34 4 16 C2.83203125 13.1640625 2.83203125 13.1640625 1.8125 9.625 C1.46832031 8.46226563 1.12414062 7.29953125 0.76953125 6.1015625 C0 3 0 3 0 0 Z " fill="#3B3B3B" transform="translate(280,114)"/>
<path d="M0 0 C4.99275057 1.27721526 7.57611908 3.17330957 11 7 C10.67 7.66 10.34 8.32 10 9 C9.01 8.34 8.02 7.68 7 7 C6.01 7.495 6.01 7.495 5 8 C5 6.35 5 4.7 5 3 C2.525 2.01 2.525 2.01 0 1 C0 0.67 0 0.34 0 0 Z " fill="#E6892A" transform="translate(228,97)"/>
<path d="M0 0 C0.66 0.33 1.32 0.66 2 1 C-2.625 5.875 -2.625 5.875 -6 7 C-5.67 5.35 -5.34 3.7 -5 2 C-4.01 1.67 -3.02 1.34 -2 1 C-1.34 1.33 -0.68 1.66 0 2 C0 1.34 0 0.68 0 0 Z " fill="#EE861E" transform="translate(239,160)"/>
<path d="M0 0 C2.34026698 0.9059098 3.69743734 1.45538722 4.9375 3.6875 C5.03431265 7.26956823 3.54421155 9.78803997 2 13 C1.34 12.67 0.68 12.34 0 12 C0.66 11.01 1.32 10.02 2 9 C1.59404786 4.34184319 1.59404786 4.34184319 0 0 Z " fill="#F1891F" transform="translate(222,142)"/>
<path d="M0 0 C0 3 0 3 -1 6 C-4.96 6 -8.92 6 -13 6 C-13 5.67 -13 5.34 -13 5 C-10.03 5 -7.06 5 -4 5 C-4 4.34 -4 3.68 -4 3 C-2 1.375 -2 1.375 0 0 Z " fill="#F68619" transform="translate(221,123)"/>
<path d="M0 0 C2.50298434 2.93828597 3.46930939 5.17902761 4 9 C2.68 9 1.36 9 0 9 C-1.21346851 5.35959446 -1.21346851 3.64040554 0 0 Z " fill="#3A3A3A" transform="translate(610,150)"/>
<path d="M0 0 C3 2 3 2 3.75 3.875 C4.02298092 6.19533782 3.71043724 7.78975082 3 10 C0 3.375 0 3.375 0 0 Z " fill="#3C3C3C" transform="translate(272,139)"/>
<path d="" fill="#FFFFFF" transform="translate(0,0)"/>
<path d="" fill="#FFFFFF" transform="translate(0,0)"/>
<path d="" fill="#FFFFFF" transform="translate(0,0)"/>
<path d="" fill="#FFFFFF" transform="translate(0,0)"/>
<path d="" fill="#FFFFFF" transform="translate(0,0)"/>
<path d="" fill="#FFFFFF" transform="translate(0,0)"/>
<path d="" fill="#FFFFFF" transform="translate(0,0)"/>
<path d="" fill="#FFFFFF" transform="translate(0,0)"/>
<path d="" fill="#FFFFFF" transform="translate(0,0)"/>
<path d="" fill="#FFFFFF" transform="translate(0,0)"/>
<path d="" fill="#FFFFFF" transform="translate(0,0)"/>
<path d="" fill="#FFFFFF" transform="translate(0,0)"/>
<path d="" fill="#FFFFFF" transform="translate(0,0)"/>
<path d="" fill="#FFFFFF" transform="translate(0,0)"/>
<path d="" fill="#FFFFFF" transform="translate(0,0)"/>
<path d="" fill="#FFFFFF" transform="translate(0,0)"/>
<path d="" fill="#FFFFFF" transform="translate(0,0)"/>
<path d="" fill="#FFFFFF" transform="translate(0,0)"/>
<path d="" fill="#FFFFFF" transform="translate(0,0)"/>
<path d="" fill="#FFFFFF" transform="translate(0,0)"/>
<path d="" fill="#FFFFFF" transform="translate(0,0)"/>
<path d="" fill="#FFFFFF" transform="translate(0,0)"/>
<path d="" fill="#FFFFFF" transform="translate(0,0)"/>
<path d="" fill="#FFFFFF" transform="translate(0,0)"/>
<path d="" fill="#FFFFFF" transform="translate(0,0)"/>
<path d="" fill="#FFFFFF" transform="translate(0,0)"/>
<path d="" fill="#FFFFFF" transform="translate(0,0)"/>
<path d="" fill="#FFFFFF" transform="translate(0,0)"/>
<path d="" fill="#FFFFFF" transform="translate(0,0)"/>
<path d="" fill="#FFFFFF" transform="translate(0,0)"/>
<path d="" fill="#FFFFFF" transform="translate(0,0)"/>
<path d="" fill="#FFFFFF" transform="translate(0,0)"/>
<path d="" fill="#FFFFFF" transform="translate(0,0)"/>
<path d="" fill="#FFFFFF" transform="translate(0,0)"/>
<path d="" fill="#FFFFFF" transform="translate(0,0)"/>
<path d="" fill="#FFFFFF" transform="translate(0,0)"/>
<path d="" fill="#FFFFFF" transform="translate(0,0)"/>
<path d="" fill="#FFFFFF" transform="translate(0,0)"/>
<path d="" fill="#FFFFFF" transform="translate(0,0)"/>
<path d="" fill="#FFFFFF" transform="translate(0,0)"/>
<path d="" fill="#FFFFFF" transform="translate(0,0)"/>
<path d="" fill="#FFFFFF" transform="translate(0,0)"/>
<path d="" fill="#FFFFFF" transform="translate(0,0)"/>
<path d="" fill="#FFFFFF" transform="translate(0,0)"/>
<path d="" fill="#FFFFFF" transform="translate(0,0)"/>
<path d="" fill="#FFFFFF" transform="translate(0,0)"/>
<path d="" fill="#FFFFFF" transform="translate(0,0)"/>
<path d="" fill="#FFFFFF" transform="translate(0,0)"/>
<path d="" fill="#FFFFFF" transform="translate(0,0)"/>
<path d="" fill="#FFFFFF" transform="translate(0,0)"/>
<path d="" fill="#FFFFFF" transform="translate(0,0)"/>
<path d="" fill="#FFFFFF" transform="translate(0,0)"/>
<path d="" fill="#FFFFFF" transform="translate(0,0)"/>
<path d="" fill="#FFFFFF" transform="translate(0,0)"/>
<path d="" fill="#FFFFFF" transform="translate(0,0)"/>
<path d="" fill="#FFFFFF" transform="translate(0,0)"/>
<path d="" fill="#FFFFFF" transform="translate(0,0)"/>
<path d="" fill="#FFFFFF" transform="translate(0,0)"/>
<path d="" fill="#FFFFFF" transform="translate(0,0)"/>
<path d="" fill="#FFFFFF" transform="translate(0,0)"/>
<path d="" fill="#FFFFFF" transform="translate(0,0)"/>
<path d="" fill="#FFFFFF" transform="translate(0,0)"/>
<path d="" fill="#FFFFFF" transform="translate(0,0)"/>
<path d="" fill="#FFFFFF" transform="translate(0,0)"/>
<path d="" fill="#FFFFFF" transform="translate(0,0)"/>
<path d="" fill="#FFFFFF" transform="translate(0,0)"/>
<path d="" fill="#FFFFFF" transform="translate(0,0)"/>
<path d="" fill="#FFFFFF" transform="translate(0,0)"/>
<path d="" fill="#FFFFFF" transform="translate(0,0)"/>
<path d="" fill="#FFFFFF" transform="translate(0,0)"/>
<path d="" fill="#FFFFFF" transform="translate(0,0)"/>
<path d="" fill="#FFFFFF" transform="translate(0,0)"/>
<path d="" fill="#FFFFFF" transform="translate(0,0)"/>
<path d="" fill="#FFFFFF" transform="translate(0,0)"/>
<path d="" fill="#FFFFFF" transform="translate(0,0)"/>
</svg>
